<svg id="Component_2_1" data-name="Component 2 – 1" xmlns="http://www.w3.org/2000/svg" xmlns:xlink="http://www.w3.org/1999/xlink" width="418.674" height="491.178" viewBox="0 0 418.674 491.178">
  <defs>
    <linearGradient id="linear-gradient" x1="0.113" y1="0.117" x2="0.718" y2="1" gradientUnits="objectBoundingBox">
      <stop offset="0" stop-color="#ffcd62"/>
      <stop offset="1" stop-color="#fea12f"/>
    </linearGradient>
    <filter id="Ellipse_45" x="183.759" y="20.632" width="219.908" height="219.908" filterUnits="userSpaceOnUse">
      <feOffset dy="4" input="SourceAlpha"/>
      <feGaussianBlur stdDeviation="11" result="blur"/>
      <feFlood flood-opacity="0.102"/>
      <feComposite operator="in" in2="blur"/>
      <feComposite in="SourceGraphic"/>
    </filter>
    <filter id="Ellipse_46" x="236.652" y="93.26" width="182.023" height="182.023" filterUnits="userSpaceOnUse">
      <feOffset dy="4" input="SourceAlpha"/>
      <feGaussianBlur stdDeviation="11" result="blur-2"/>
      <feFlood flood-opacity="0.102"/>
      <feComposite operator="in" in2="blur-2"/>
      <feComposite in="SourceGraphic"/>
    </filter>
    <filter id="Ellipse_47" x="156.939" y="14.368" width="182.023" height="182.023" filterUnits="userSpaceOnUse">
      <feOffset dy="4" input="SourceAlpha"/>
      <feGaussianBlur stdDeviation="11" result="blur-3"/>
      <feFlood flood-opacity="0.102"/>
      <feComposite operator="in" in2="blur-3"/>
      <feComposite in="SourceGraphic"/>
    </filter>
    <linearGradient id="linear-gradient-2" x2="1" y2="1" gradientUnits="objectBoundingBox">
      <stop offset="0" stop-color="#eb5757"/>
      <stop offset="1" stop-color="#fdb2b2"/>
    </linearGradient>
  </defs>
  <circle id="Ellipse_33" data-name="Ellipse 33" cx="52.103" cy="52.103" r="52.103" transform="matrix(0.766, 0.642, -0.642, 0.766, 307.483, 18.596)" fill="url(#linear-gradient)"/>
  <g id="Union" transform="translate(-4 -337)">
    <g transform="matrix(1, 0, 0, 1, 4, 337)" filter="url(#Ellipse_45)">
      <circle id="Ellipse_45-2" data-name="Ellipse 45" cx="54.625" cy="54.625" r="54.625" transform="matrix(0.77, 0.64, -0.64, 0.77, 286.95, 49.63)" fill="rgba(255,255,255,0.5)"/>
    </g>
    <g transform="matrix(1, 0, 0, 1, 4, 337)" filter="url(#Ellipse_46)">
      <circle id="Ellipse_46-2" data-name="Ellipse 46" cx="41.178" cy="41.178" r="41.178" transform="matrix(0.77, 0.64, -0.64, 0.77, 322.56, 122.26)" fill="rgba(255,255,255,0.5)"/>
    </g>
    <g transform="matrix(1, 0, 0, 1, 4, 337)" filter="url(#Ellipse_47)">
      <circle id="Ellipse_47-2" data-name="Ellipse 47" cx="41.178" cy="41.178" r="41.178" transform="matrix(0.77, 0.64, -0.64, 0.77, 242.85, 43.37)" fill="rgba(255,255,255,0.5)"/>
    </g>
  </g>
  <rect id="Image" width="156.213" height="156.213" rx="8" transform="translate(57.164) rotate(21.465)" fill="none"/>
  <rect id="Rectangle_12" data-name="Rectangle 12" width="97.633" height="78.107" rx="4" transform="translate(71.918 42.52) rotate(21.465)" fill="url(#linear-gradient-2)"/>
  <circle id="Ellipse_62" data-name="Ellipse 62" cx="7.322" cy="7.322" r="7.322" transform="translate(80.188 61.508) rotate(21.465)" fill="#fff"/>
  <g id="Union-2" data-name="Union" transform="translate(-4 -337)">
    <path id="Vector_2" data-name="Vector 2" d="M0,39.053,26.849,0,53.7,39.053Z" transform="translate(67.14 428.523) rotate(21.465)" fill="rgba(253,178,178,0.4)"/>
    <path id="Vector_3" data-name="Vector 3" d="M0,48.817,34.172,0,68.343,48.817Z" transform="translate(88.885 426.582) rotate(21.465)" fill="rgba(253,178,178,0.4)"/>
  </g>
  <rect id="Video" width="194" height="194" rx="8" transform="matrix(0.956, 0.292, -0.292, 0.956, 155.627, 249)" fill="none"/>
  <rect id="Rectangle_12-2" data-name="Rectangle 12" width="90.938" height="84.875" rx="3" transform="matrix(0.956, 0.292, -0.292, 0.956, 180.29, 313.573)" fill="url(#linear-gradient-2)"/>
  <path id="Polygon_1" data-name="Polygon 1" d="M21.822,3.031a6.062,6.062,0,0,1,10.5,0l21,36.375a6.062,6.062,0,0,1-5.25,9.094h-42a6.062,6.062,0,0,1-5.25-9.094Z" transform="matrix(0.292, -0.956, 0.956, 0.292, 222.96, 402.222)" fill="rgba(253,178,178,0.4)"/>
  <circle id="Ellipse_62-2" data-name="Ellipse 62" cx="9.094" cy="9.094" r="9.094" transform="matrix(0.956, 0.292, -0.292, 0.956, 188.348, 328.71)" fill="#fff"/>
</svg>
